<mxfile host="app.diagrams.net" agent="Mozilla/5.0 (Windows NT 10.0; Win64; x64) AppleWebKit/537.36 (KHTML, like Gecko) Chrome/128.0.0.0 Safari/537.36" version="24.7.14">
  <diagram name="第 1 页" id="5klusX7bcSKgV-_HhoXc">
    <mxGraphModel dx="989" dy="509" grid="1" gridSize="10" guides="1" tooltips="1" connect="1" arrows="1" fold="1" page="1" pageScale="1" pageWidth="827" pageHeight="1169" math="1" shadow="0">
      <root>
        <mxCell id="0" />
        <mxCell id="1" parent="0" />
        <mxCell id="2gSjBblCjZvIdVqKypLR-36" value="" style="group" vertex="1" connectable="0" parent="1">
          <mxGeometry y="280" width="80" height="80" as="geometry" />
        </mxCell>
        <mxCell id="2gSjBblCjZvIdVqKypLR-1" value="" style="rounded=1;whiteSpace=wrap;html=1;fillColor=#F6FEF6;strokeColor=#82b366;" vertex="1" parent="2gSjBblCjZvIdVqKypLR-36">
          <mxGeometry width="80" height="80" as="geometry" />
        </mxCell>
        <mxCell id="2gSjBblCjZvIdVqKypLR-2" value="$$t_1$$" style="text;html=1;align=center;verticalAlign=middle;whiteSpace=wrap;rounded=0;fontSize=16;" vertex="1" parent="2gSjBblCjZvIdVqKypLR-36">
          <mxGeometry x="10" width="60" height="20" as="geometry" />
        </mxCell>
        <mxCell id="2gSjBblCjZvIdVqKypLR-8" value="" style="rounded=1;whiteSpace=wrap;html=1;fillColor=#d5e8d4;strokeColor=#82b366;" vertex="1" parent="2gSjBblCjZvIdVqKypLR-36">
          <mxGeometry x="10" y="20" width="60" height="50" as="geometry" />
        </mxCell>
        <mxCell id="2gSjBblCjZvIdVqKypLR-4" value="$$S_1$$" style="text;html=1;align=center;verticalAlign=middle;whiteSpace=wrap;rounded=0;fontSize=16;container=0;" vertex="1" parent="2gSjBblCjZvIdVqKypLR-36">
          <mxGeometry x="10" y="25" width="60" height="20" as="geometry" />
        </mxCell>
        <mxCell id="2gSjBblCjZvIdVqKypLR-7" value="$$s_1,s_2$$" style="text;html=1;align=center;verticalAlign=middle;whiteSpace=wrap;rounded=0;fontSize=16;container=0;" vertex="1" parent="2gSjBblCjZvIdVqKypLR-36">
          <mxGeometry x="10" y="40" width="60" height="30" as="geometry" />
        </mxCell>
        <mxCell id="2gSjBblCjZvIdVqKypLR-38" value="" style="group" vertex="1" connectable="0" parent="1">
          <mxGeometry x="110" y="230" width="80" height="80" as="geometry" />
        </mxCell>
        <mxCell id="2gSjBblCjZvIdVqKypLR-39" value="" style="rounded=1;whiteSpace=wrap;html=1;fillColor=#FFFBF0;strokeColor=#d6b656;" vertex="1" parent="2gSjBblCjZvIdVqKypLR-38">
          <mxGeometry width="80" height="80" as="geometry" />
        </mxCell>
        <mxCell id="2gSjBblCjZvIdVqKypLR-40" value="$$t_2$$" style="text;html=1;align=center;verticalAlign=middle;whiteSpace=wrap;rounded=0;fontSize=16;" vertex="1" parent="2gSjBblCjZvIdVqKypLR-38">
          <mxGeometry x="10" width="60" height="20" as="geometry" />
        </mxCell>
        <mxCell id="2gSjBblCjZvIdVqKypLR-41" value="" style="rounded=1;whiteSpace=wrap;html=1;fillColor=#fff2cc;strokeColor=#d6b656;" vertex="1" parent="2gSjBblCjZvIdVqKypLR-38">
          <mxGeometry x="10" y="20" width="60" height="50" as="geometry" />
        </mxCell>
        <mxCell id="2gSjBblCjZvIdVqKypLR-42" value="$$S_2$$" style="text;html=1;align=center;verticalAlign=middle;whiteSpace=wrap;rounded=0;fontSize=16;container=0;" vertex="1" parent="2gSjBblCjZvIdVqKypLR-38">
          <mxGeometry x="10" y="25" width="60" height="20" as="geometry" />
        </mxCell>
        <mxCell id="2gSjBblCjZvIdVqKypLR-43" value="$$s_2,s_3$$" style="text;html=1;align=center;verticalAlign=middle;whiteSpace=wrap;rounded=0;fontSize=16;container=0;" vertex="1" parent="2gSjBblCjZvIdVqKypLR-38">
          <mxGeometry x="10" y="40" width="60" height="30" as="geometry" />
        </mxCell>
        <mxCell id="2gSjBblCjZvIdVqKypLR-46" value="" style="group" vertex="1" connectable="0" parent="1">
          <mxGeometry x="110" y="330" width="80" height="80" as="geometry" />
        </mxCell>
        <mxCell id="2gSjBblCjZvIdVqKypLR-47" value="" style="rounded=1;whiteSpace=wrap;html=1;fillColor=#F6FEF6;strokeColor=#82b366;" vertex="1" parent="2gSjBblCjZvIdVqKypLR-46">
          <mxGeometry width="80" height="80" as="geometry" />
        </mxCell>
        <mxCell id="2gSjBblCjZvIdVqKypLR-48" value="$$t_3$$" style="text;html=1;align=center;verticalAlign=middle;whiteSpace=wrap;rounded=0;fontSize=16;" vertex="1" parent="2gSjBblCjZvIdVqKypLR-46">
          <mxGeometry x="10" width="60" height="20" as="geometry" />
        </mxCell>
        <mxCell id="2gSjBblCjZvIdVqKypLR-49" value="" style="rounded=1;whiteSpace=wrap;html=1;fillColor=#d5e8d4;strokeColor=#82b366;" vertex="1" parent="2gSjBblCjZvIdVqKypLR-46">
          <mxGeometry x="10" y="20" width="60" height="50" as="geometry" />
        </mxCell>
        <mxCell id="2gSjBblCjZvIdVqKypLR-50" value="$$S_3$$" style="text;html=1;align=center;verticalAlign=middle;whiteSpace=wrap;rounded=0;fontSize=16;container=0;" vertex="1" parent="2gSjBblCjZvIdVqKypLR-46">
          <mxGeometry x="10" y="25" width="60" height="20" as="geometry" />
        </mxCell>
        <mxCell id="2gSjBblCjZvIdVqKypLR-51" value="$$s_1,s_3$$" style="text;html=1;align=center;verticalAlign=middle;whiteSpace=wrap;rounded=0;fontSize=16;container=0;" vertex="1" parent="2gSjBblCjZvIdVqKypLR-46">
          <mxGeometry x="10" y="40" width="60" height="30" as="geometry" />
        </mxCell>
        <mxCell id="2gSjBblCjZvIdVqKypLR-52" value="" style="group" vertex="1" connectable="0" parent="1">
          <mxGeometry x="210" y="230" width="80" height="80" as="geometry" />
        </mxCell>
        <mxCell id="2gSjBblCjZvIdVqKypLR-53" value="" style="rounded=1;whiteSpace=wrap;html=1;fillColor=#FFFAFA;strokeColor=#b85450;" vertex="1" parent="2gSjBblCjZvIdVqKypLR-52">
          <mxGeometry width="80" height="80" as="geometry" />
        </mxCell>
        <mxCell id="2gSjBblCjZvIdVqKypLR-54" value="$$t_4$$" style="text;html=1;align=center;verticalAlign=middle;whiteSpace=wrap;rounded=0;fontSize=16;" vertex="1" parent="2gSjBblCjZvIdVqKypLR-52">
          <mxGeometry x="10" width="60" height="20" as="geometry" />
        </mxCell>
        <mxCell id="2gSjBblCjZvIdVqKypLR-55" value="" style="rounded=1;whiteSpace=wrap;html=1;fillColor=#FFE7E5;strokeColor=#b85450;" vertex="1" parent="2gSjBblCjZvIdVqKypLR-52">
          <mxGeometry x="10" y="20" width="60" height="50" as="geometry" />
        </mxCell>
        <mxCell id="2gSjBblCjZvIdVqKypLR-56" value="$$S_4$$" style="text;html=1;align=center;verticalAlign=middle;whiteSpace=wrap;rounded=0;fontSize=16;container=0;" vertex="1" parent="2gSjBblCjZvIdVqKypLR-52">
          <mxGeometry x="10" y="25" width="60" height="20" as="geometry" />
        </mxCell>
        <mxCell id="2gSjBblCjZvIdVqKypLR-57" value="$$s_3,s_4$$" style="text;html=1;align=center;verticalAlign=middle;whiteSpace=wrap;rounded=0;fontSize=16;container=0;" vertex="1" parent="2gSjBblCjZvIdVqKypLR-52">
          <mxGeometry x="10" y="40" width="60" height="30" as="geometry" />
        </mxCell>
        <mxCell id="2gSjBblCjZvIdVqKypLR-58" value="" style="group" vertex="1" connectable="0" parent="1">
          <mxGeometry x="210" y="330" width="80" height="80" as="geometry" />
        </mxCell>
        <mxCell id="2gSjBblCjZvIdVqKypLR-59" value="" style="rounded=1;whiteSpace=wrap;html=1;fillColor=#FFFBF0;strokeColor=#d6b656;" vertex="1" parent="2gSjBblCjZvIdVqKypLR-58">
          <mxGeometry width="80" height="80" as="geometry" />
        </mxCell>
        <mxCell id="2gSjBblCjZvIdVqKypLR-60" value="$$t_5$$" style="text;html=1;align=center;verticalAlign=middle;whiteSpace=wrap;rounded=0;fontSize=16;" vertex="1" parent="2gSjBblCjZvIdVqKypLR-58">
          <mxGeometry x="10" width="60" height="20" as="geometry" />
        </mxCell>
        <mxCell id="2gSjBblCjZvIdVqKypLR-61" value="" style="rounded=1;whiteSpace=wrap;html=1;fillColor=#fff2cc;strokeColor=#d6b656;" vertex="1" parent="2gSjBblCjZvIdVqKypLR-58">
          <mxGeometry x="10" y="20" width="60" height="50" as="geometry" />
        </mxCell>
        <mxCell id="2gSjBblCjZvIdVqKypLR-62" value="$$S_5$$" style="text;html=1;align=center;verticalAlign=middle;whiteSpace=wrap;rounded=0;fontSize=16;container=0;" vertex="1" parent="2gSjBblCjZvIdVqKypLR-58">
          <mxGeometry x="10" y="25" width="60" height="20" as="geometry" />
        </mxCell>
        <mxCell id="2gSjBblCjZvIdVqKypLR-63" value="$$s_3,s_5$$" style="text;html=1;align=center;verticalAlign=middle;whiteSpace=wrap;rounded=0;fontSize=16;container=0;" vertex="1" parent="2gSjBblCjZvIdVqKypLR-58">
          <mxGeometry x="10" y="40" width="60" height="30" as="geometry" />
        </mxCell>
        <mxCell id="2gSjBblCjZvIdVqKypLR-64" value="" style="group" vertex="1" connectable="0" parent="1">
          <mxGeometry x="310" y="330" width="80" height="80" as="geometry" />
        </mxCell>
        <mxCell id="2gSjBblCjZvIdVqKypLR-65" value="" style="rounded=1;whiteSpace=wrap;html=1;fillColor=#F6FEF6;strokeColor=#82b366;" vertex="1" parent="2gSjBblCjZvIdVqKypLR-64">
          <mxGeometry width="80" height="80" as="geometry" />
        </mxCell>
        <mxCell id="2gSjBblCjZvIdVqKypLR-66" value="$$t_7$$" style="text;html=1;align=center;verticalAlign=middle;whiteSpace=wrap;rounded=0;fontSize=16;" vertex="1" parent="2gSjBblCjZvIdVqKypLR-64">
          <mxGeometry x="10" width="60" height="20" as="geometry" />
        </mxCell>
        <mxCell id="2gSjBblCjZvIdVqKypLR-67" value="" style="rounded=1;whiteSpace=wrap;html=1;fillColor=#d5e8d4;strokeColor=#82b366;" vertex="1" parent="2gSjBblCjZvIdVqKypLR-64">
          <mxGeometry x="10" y="20" width="60" height="50" as="geometry" />
        </mxCell>
        <mxCell id="2gSjBblCjZvIdVqKypLR-68" value="$$S_7$$" style="text;html=1;align=center;verticalAlign=middle;whiteSpace=wrap;rounded=0;fontSize=16;container=0;" vertex="1" parent="2gSjBblCjZvIdVqKypLR-64">
          <mxGeometry x="10" y="25" width="60" height="20" as="geometry" />
        </mxCell>
        <mxCell id="2gSjBblCjZvIdVqKypLR-69" value="$$s_1,s_4$$" style="text;html=1;align=center;verticalAlign=middle;whiteSpace=wrap;rounded=0;fontSize=16;container=0;" vertex="1" parent="2gSjBblCjZvIdVqKypLR-64">
          <mxGeometry x="10" y="40" width="60" height="30" as="geometry" />
        </mxCell>
        <mxCell id="2gSjBblCjZvIdVqKypLR-70" style="edgeStyle=orthogonalEdgeStyle;rounded=0;orthogonalLoop=1;jettySize=auto;html=1;entryX=0;entryY=0.5;entryDx=0;entryDy=0;curved=1;" edge="1" parent="1" source="2gSjBblCjZvIdVqKypLR-1" target="2gSjBblCjZvIdVqKypLR-39">
          <mxGeometry relative="1" as="geometry" />
        </mxCell>
        <mxCell id="2gSjBblCjZvIdVqKypLR-71" style="edgeStyle=orthogonalEdgeStyle;rounded=0;orthogonalLoop=1;jettySize=auto;html=1;entryX=0;entryY=0.5;entryDx=0;entryDy=0;curved=1;" edge="1" parent="1" source="2gSjBblCjZvIdVqKypLR-1" target="2gSjBblCjZvIdVqKypLR-47">
          <mxGeometry relative="1" as="geometry" />
        </mxCell>
        <mxCell id="2gSjBblCjZvIdVqKypLR-72" style="edgeStyle=orthogonalEdgeStyle;rounded=0;orthogonalLoop=1;jettySize=auto;html=1;entryX=0;entryY=0.5;entryDx=0;entryDy=0;" edge="1" parent="1" source="2gSjBblCjZvIdVqKypLR-39" target="2gSjBblCjZvIdVqKypLR-53">
          <mxGeometry relative="1" as="geometry" />
        </mxCell>
        <mxCell id="2gSjBblCjZvIdVqKypLR-73" style="edgeStyle=orthogonalEdgeStyle;rounded=0;orthogonalLoop=1;jettySize=auto;html=1;entryX=0;entryY=0.5;entryDx=0;entryDy=0;" edge="1" parent="1" source="2gSjBblCjZvIdVqKypLR-47" target="2gSjBblCjZvIdVqKypLR-59">
          <mxGeometry relative="1" as="geometry" />
        </mxCell>
        <mxCell id="2gSjBblCjZvIdVqKypLR-74" value="" style="group" vertex="1" connectable="0" parent="1">
          <mxGeometry x="310" y="230" width="80" height="80" as="geometry" />
        </mxCell>
        <mxCell id="2gSjBblCjZvIdVqKypLR-75" value="" style="rounded=1;whiteSpace=wrap;html=1;fillColor=#FFFAFA;strokeColor=#b85450;" vertex="1" parent="2gSjBblCjZvIdVqKypLR-74">
          <mxGeometry width="80" height="80" as="geometry" />
        </mxCell>
        <mxCell id="2gSjBblCjZvIdVqKypLR-76" value="$$t_6$$" style="text;html=1;align=center;verticalAlign=middle;whiteSpace=wrap;rounded=0;fontSize=16;" vertex="1" parent="2gSjBblCjZvIdVqKypLR-74">
          <mxGeometry x="10" width="60" height="20" as="geometry" />
        </mxCell>
        <mxCell id="2gSjBblCjZvIdVqKypLR-77" value="" style="rounded=1;whiteSpace=wrap;html=1;fillColor=#FFE7E5;strokeColor=#b85450;" vertex="1" parent="2gSjBblCjZvIdVqKypLR-74">
          <mxGeometry x="10" y="20" width="60" height="50" as="geometry" />
        </mxCell>
        <mxCell id="2gSjBblCjZvIdVqKypLR-78" value="$$S_6$$" style="text;html=1;align=center;verticalAlign=middle;whiteSpace=wrap;rounded=0;fontSize=16;container=0;" vertex="1" parent="2gSjBblCjZvIdVqKypLR-74">
          <mxGeometry x="10" y="25" width="60" height="20" as="geometry" />
        </mxCell>
        <mxCell id="2gSjBblCjZvIdVqKypLR-79" value="$$s_5,s_6$$" style="text;html=1;align=center;verticalAlign=middle;whiteSpace=wrap;rounded=0;fontSize=16;container=0;" vertex="1" parent="2gSjBblCjZvIdVqKypLR-74">
          <mxGeometry x="10" y="40" width="60" height="30" as="geometry" />
        </mxCell>
        <mxCell id="2gSjBblCjZvIdVqKypLR-80" style="edgeStyle=orthogonalEdgeStyle;rounded=0;orthogonalLoop=1;jettySize=auto;html=1;entryX=0;entryY=0.5;entryDx=0;entryDy=0;" edge="1" parent="1" source="2gSjBblCjZvIdVqKypLR-53" target="2gSjBblCjZvIdVqKypLR-75">
          <mxGeometry relative="1" as="geometry" />
        </mxCell>
        <mxCell id="2gSjBblCjZvIdVqKypLR-82" style="edgeStyle=orthogonalEdgeStyle;rounded=0;orthogonalLoop=1;jettySize=auto;html=1;entryX=0;entryY=0.5;entryDx=0;entryDy=0;" edge="1" parent="1" source="2gSjBblCjZvIdVqKypLR-59" target="2gSjBblCjZvIdVqKypLR-65">
          <mxGeometry relative="1" as="geometry" />
        </mxCell>
        <mxCell id="2gSjBblCjZvIdVqKypLR-84" value="当前待处理测试用例：$$\{t_2, t_5\}$$" style="text;html=1;align=center;verticalAlign=middle;whiteSpace=wrap;rounded=0;fontSize=16;" vertex="1" parent="1">
          <mxGeometry x="400" y="220" width="190" height="75" as="geometry" />
        </mxCell>
        <mxCell id="2gSjBblCjZvIdVqKypLR-87" value="当前待转换的状态子集：&lt;br&gt;$$S^i=S_2\cup S_5=\{s_2,s_3,s_5\}$$" style="text;html=1;align=center;verticalAlign=middle;whiteSpace=wrap;rounded=0;fontSize=16;" vertex="1" parent="1">
          <mxGeometry x="600" y="220" width="220" height="75" as="geometry" />
        </mxCell>
        <mxCell id="2gSjBblCjZvIdVqKypLR-88" value="" style="rounded=1;whiteSpace=wrap;html=1;fillColor=#fff2cc;strokeColor=#d6b656;" vertex="1" parent="1">
          <mxGeometry x="413.5" y="337.5" width="20" height="20" as="geometry" />
        </mxCell>
        <mxCell id="2gSjBblCjZvIdVqKypLR-89" value="已通过的测试用例" style="text;html=1;align=center;verticalAlign=middle;whiteSpace=wrap;rounded=0;fontSize=16;" vertex="1" parent="1">
          <mxGeometry x="443.5" y="282.5" width="130" height="30" as="geometry" />
        </mxCell>
        <mxCell id="2gSjBblCjZvIdVqKypLR-90" value="" style="rounded=1;whiteSpace=wrap;html=1;fillColor=#d5e8d4;strokeColor=#82b366;" vertex="1" parent="1">
          <mxGeometry x="413.5" y="287.5" width="20" height="20" as="geometry" />
        </mxCell>
        <mxCell id="2gSjBblCjZvIdVqKypLR-91" value="未通过，当前需要处理的测试用例" style="text;html=1;align=center;verticalAlign=middle;whiteSpace=wrap;rounded=0;fontSize=16;" vertex="1" parent="1">
          <mxGeometry x="443.5" y="332.5" width="130" height="30" as="geometry" />
        </mxCell>
        <mxCell id="2gSjBblCjZvIdVqKypLR-92" value="" style="rounded=1;whiteSpace=wrap;html=1;fillColor=#f8cecc;strokeColor=#b85450;" vertex="1" parent="1">
          <mxGeometry x="413.5" y="382.5" width="20" height="20" as="geometry" />
        </mxCell>
        <mxCell id="2gSjBblCjZvIdVqKypLR-94" value="未通过的测试用例" style="text;html=1;align=center;verticalAlign=middle;whiteSpace=wrap;rounded=0;fontSize=16;" vertex="1" parent="1">
          <mxGeometry x="443.5" y="380" width="130" height="30" as="geometry" />
        </mxCell>
        <mxCell id="2gSjBblCjZvIdVqKypLR-97" value="" style="group;fontSize=11;" vertex="1" connectable="0" parent="1">
          <mxGeometry x="610" y="320" width="80" height="80" as="geometry" />
        </mxCell>
        <mxCell id="2gSjBblCjZvIdVqKypLR-98" value="" style="rounded=1;whiteSpace=wrap;html=1;fillColor=#F6FEF6;strokeColor=#82b366;" vertex="1" parent="2gSjBblCjZvIdVqKypLR-97">
          <mxGeometry width="80" height="80" as="geometry" />
        </mxCell>
        <mxCell id="2gSjBblCjZvIdVqKypLR-99" value="测试用例" style="text;html=1;align=center;verticalAlign=middle;whiteSpace=wrap;rounded=0;fontSize=14;" vertex="1" parent="2gSjBblCjZvIdVqKypLR-97">
          <mxGeometry x="10" width="60" height="20" as="geometry" />
        </mxCell>
        <mxCell id="2gSjBblCjZvIdVqKypLR-100" value="" style="rounded=1;whiteSpace=wrap;html=1;fillColor=#d5e8d4;strokeColor=#82b366;" vertex="1" parent="2gSjBblCjZvIdVqKypLR-97">
          <mxGeometry x="10" y="20" width="60" height="50" as="geometry" />
        </mxCell>
        <mxCell id="2gSjBblCjZvIdVqKypLR-101" value="&lt;font style=&quot;font-size: 13px;&quot;&gt;状态子集&lt;/font&gt;" style="text;html=1;align=center;verticalAlign=middle;whiteSpace=wrap;rounded=0;fontSize=16;container=0;" vertex="1" parent="2gSjBblCjZvIdVqKypLR-97">
          <mxGeometry x="10" y="25" width="60" height="20" as="geometry" />
        </mxCell>
        <mxCell id="2gSjBblCjZvIdVqKypLR-102" value="&lt;font style=&quot;font-size: 12px;&quot;&gt;状态原子&lt;/font&gt;" style="text;html=1;align=center;verticalAlign=middle;whiteSpace=wrap;rounded=0;fontSize=16;container=0;" vertex="1" parent="2gSjBblCjZvIdVqKypLR-97">
          <mxGeometry x="10" y="40" width="60" height="30" as="geometry" />
        </mxCell>
        <mxCell id="2gSjBblCjZvIdVqKypLR-108" value="" style="endArrow=classic;html=1;rounded=0;entryX=0;entryY=0.667;entryDx=0;entryDy=0;entryPerimeter=0;shape=flexArrow;endWidth=11.724137931034484;endSize=4.841379310344827;fillColor=#fff2cc;strokeColor=#d6b656;" edge="1" parent="1">
          <mxGeometry width="50" height="50" relative="1" as="geometry">
            <mxPoint x="540" y="269.66" as="sourcePoint" />
            <mxPoint x="589.9999999999998" y="269.6850000000001" as="targetPoint" />
          </mxGeometry>
        </mxCell>
      </root>
    </mxGraphModel>
  </diagram>
</mxfile>
